<svg xmlns="http://www.w3.org/2000/svg" viewBox="0 0 133.17 81.45"><rect x="1.5" y="1.5" width="130.17" height="78.45" rx="12" ry="12" fill="#f7f8f8" stroke="#d8d8d8" stroke-miterlimit="10" stroke-width="3"/><path fill="#0058a0" d="M50.08 55.11l4.89-28.7h7.82l-4.89 28.7h-7.82zm36.18-27.99c-1.55-.58-3.98-1.21-7.01-1.21-7.73 0-13.17 3.89-13.22 9.47-.04 4.12 3.89 6.42 6.85 7.8 3.05 1.41 4.07 2.3 4.06 3.56-.02 1.92-2.43 2.8-4.68 2.8-3.13 0-4.79-.43-7.36-1.51l-1.01-.45-1.1 6.42c1.82.8 5.2 1.49 8.71 1.53 8.22 0 13.56-3.85 13.62-9.8.03-3.26-2.05-5.75-6.56-7.79-2.73-1.33-4.41-2.21-4.39-3.56 0-1.19 1.42-2.47 4.48-2.47 2.56-.04 4.41.52 5.85 1.1l.7.33 1.06-6.22zm20.06-.68h-6.04c-1.87 0-3.27.51-4.1 2.38l-11.61 26.3h8.21s1.34-3.54 1.65-4.31c.9 0 8.87.01 10.02.01.23 1 .95 4.3.95 4.3h7.26l-6.33-28.67zm-9.64 18.49c.65-1.65 3.12-8.02 3.12-8.02-.04.08.64-1.66 1.04-2.74l.53 2.47s1.5 6.85 1.81 8.29h-6.49zM43.52 26.44l-7.66 19.57-.82-3.98c-1.42-4.59-5.86-9.55-10.83-12.04l7 25.09h8.27l12.31-28.65h-8.28z"/><path d="M28.76 26.42H16.15l-.1.6c9.81 2.38 16.3 8.12 18.99 15.01L32.3 28.84c-.47-1.82-1.85-2.36-3.54-2.42z" fill="#faa61a"/></svg>