<svg xmlns="http://www.w3.org/2000/svg" viewBox="0 0 133.17 81.45"><rect x="1.5" y="1.5" width="130.17" height="78.45" rx="12" ry="12" fill="#f7f8f8" stroke="#d8d8d8" stroke-miterlimit="10" stroke-width="3"/><g fill-rule="evenodd"><path d="M115.48 53.66c0 2.44-1.54 3.57-4.3 3.57h-5.28v-2.44h5.28c.49 0 .89-.08 1.06-.24.16-.16.32-.41.32-.73s-.16-.65-.32-.81c-.16-.16-.49-.24-.97-.24-2.52-.08-5.68.08-5.68-3.49 0-1.62 1.06-3.41 3.9-3.41h5.44v2.44h-5.04c-.49 0-.81 0-1.06.16-.24.24-.41.49-.41.89s.24.65.57.81c.33.08.65.16 1.06.16h1.46c1.54 0 2.52.32 3.17.89.49.57.81 1.3.81 2.44zm-11.45-2.44c-.65-.57-1.62-.89-3.17-.89H99.4c-.41 0-.73-.08-1.06-.16-.33-.16-.57-.41-.57-.81s.08-.65.41-.89c.24-.16.57-.16 1.06-.16h5.04v-2.44h-5.44c-2.92 0-3.9 1.79-3.9 3.41 0 3.57 3.17 3.41 5.69 3.49.49 0 .81.08.97.24.16.16.33.49.33.81s-.16.57-.33.73c-.24.16-.57.24-1.06.24h-5.28v2.44h5.28c2.76 0 4.3-1.14 4.3-3.57 0-1.14-.32-1.87-.81-2.44zm-10.4 3.65h-6.41V52.6h6.25v-2.27h-6.25v-2.11h6.41v-2.36h-9.09v11.37h9.09v-2.36zm-12.02-8.44c-.89-.49-1.95-.57-3.33-.57h-6.25v11.37h2.76v-4.14h2.92c.97 0 1.54.08 1.95.49.49.57.49 1.54.49 2.27v1.38h2.68v-2.19c0-1.06-.08-1.54-.41-2.11-.24-.33-.73-.73-1.38-.97.73-.24 1.95-1.22 1.95-3 0-1.3-.49-2.03-1.38-2.52zm-15.43-.57h-8.69L54 49.6l-3.33-3.74H39.71v11.37h10.8L54 53.49l3.33 3.74h5.28v-3.82h3.41c2.35 0 4.71-.65 4.71-3.82 0-3.09-2.44-3.74-4.55-3.74z" fill="#0978a7"/><path d="M79.42 50.57c-.41.16-.81.16-1.3.16l-3.33.08v-2.6h3.33c.49 0 .97 0 1.3.24.33.16.57.49.57.97s-.24.89-.57 1.14zm-13.24.57h-3.57v-2.92h3.57c.97 0 1.62.41 1.62 1.38s-.65 1.54-1.62 1.54zm-10.47.4l4.22-4.46v9.17l-4.22-4.71zm-6.58 3.33h-6.74V52.6h6.01v-2.27h-6.01v-2.11h6.82l3.01 3.32-3.09 3.33z" fill="#f7f8f8"/><path d="M107.92 37.66h-3.9l-5.12-8.53v8.53h-5.52l-1.06-2.52h-5.68l-1.06 2.52h-3.17c-1.3 0-3-.32-3.98-1.3-.89-.97-1.38-2.27-1.38-4.3 0-1.71.24-3.25 1.46-4.47.81-.89 2.27-1.3 4.14-1.3h2.6v2.44h-2.6c-.97 0-1.54.16-2.11.65-.49.49-.73 1.38-.73 2.6s.24 2.11.73 2.68c.41.41 1.14.57 1.87.57h1.22l3.9-8.93h4.06l4.55 10.72V26.3h4.22l4.79 7.88V26.3h2.76v11.37zM75.69 26.29h-2.77v11.37h2.77V26.29zm-5.77.49c-.89-.49-1.87-.49-3.25-.49h-6.25v11.37h2.68v-4.14h2.92c.97 0 1.62.08 2.03.49.49.57.41 1.54.41 2.19v1.46h2.76v-2.27c0-.97-.08-1.46-.49-2.03-.24-.32-.73-.73-1.3-.97.73-.32 1.95-1.22 1.95-3 0-1.3-.57-2.03-1.46-2.6zM58.47 35.3h-6.34v-2.27h6.26v-2.36h-6.26v-2.03h6.34v-2.35h-9.1v11.37h9.1V35.3zm-11.13-9.01h-4.46L39.55 34l-3.58-7.71h-4.38v10.72l-4.63-10.72H22.9l-4.87 11.37h2.92l1.06-2.52h5.68l1.06 2.52h5.52v-8.94l3.98 8.94h2.35l3.98-8.94v8.94h2.76V26.29z" fill="#0978a7"/><path fill="#f7f8f8" d="M91.36 32.7l-1.87-4.46-1.87 4.46h3.74zm-23.55-1.78c-.41.24-.81.24-1.38.24H63.1v-2.52h3.33c.49 0 1.05 0 1.38.16.32.24.49.57.49 1.06s-.16.89-.49 1.06zM22.98 32.7l1.87-4.46 1.87 4.46h-3.74z"/></g></svg>