<svg xmlns="http://www.w3.org/2000/svg" viewBox="0 0 133.17 81.45"><defs><radialGradient id="a" cx="61.36" cy="-449.27" fx="61.36" fy="-449.27" r="7.93" gradientTransform="translate(6.42 486.08)" gradientUnits="userSpaceOnUse"><stop offset="0" stop-color="#ffefe1"/><stop offset=".11" stop-color="#fee9d8"/><stop offset=".28" stop-color="#fddcbf"/><stop offset=".49" stop-color="#fbc597"/><stop offset=".74" stop-color="#f8a660"/><stop offset="1" stop-color="#f58220"/></radialGradient></defs><rect x="1.5" y="1.5" width="130.17" height="78.45" rx="12" ry="12" fill="#f7f8f8" stroke="#d8d8d8" stroke-miterlimit="10" stroke-width="3"/><path d="M130.14 48.3s-29.49 20.81-83.51 30.13h63.08c5.87 0 8.56.05 8.56.05s11.71.67 11.87-10.91V48.29z" fill="#f58220"/><path d="M67.78 28.97c-4.43 0-8.03 3.46-8.03 7.73 0 4.54 3.44 7.94 8.03 7.94s8-3.44 8-7.85-3.51-7.82-8-7.82z" fill="url(#a)"/><path d="M22.22 29.25H17.9V44.3h4.29c2.28 0 3.92-.54 5.37-1.74 1.71-1.42 2.73-3.57 2.73-5.78 0-4.44-3.32-7.53-8.08-7.53zm3.43 11.3c-.93.84-2.12 1.2-4.02 1.2h-.79V31.8h.79c1.9 0 3.05.34 4.02 1.22 1.02.9 1.62 2.3 1.62 3.74s-.61 2.89-1.62 3.79zm6-11.3h2.93V44.3h-2.93zm10.11 5.78c-1.76-.65-2.28-1.08-2.28-1.89 0-.95.92-1.67 2.19-1.67.88 0 1.6.36 2.37 1.22l1.53-2.01a6.566 6.566 0 00-4.42-1.67c-2.66 0-4.69 1.85-4.69 4.31 0 2.08.95 3.14 3.7 4.13 1.15.4 1.74.67 2.03.86.59.38.88.92.88 1.56 0 1.22-.97 2.12-2.28 2.12-1.4 0-2.53-.7-3.2-2.01l-1.89 1.83c1.35 1.98 2.98 2.87 5.21 2.87 3.05 0 5.19-2.03 5.19-4.94 0-2.39-.99-3.48-4.33-4.7zm5.26 1.76c0 4.43 3.48 7.86 7.95 7.86 1.26 0 2.35-.25 3.68-.88v-3.45c-1.18 1.17-2.21 1.65-3.55 1.65-2.96 0-5.06-2.14-5.06-5.19 0-2.89 2.17-5.17 4.92-5.17 1.4 0 2.46.5 3.68 1.69v-3.45c-1.29-.65-2.35-.92-3.61-.92-4.45 0-8.01 3.5-8.01 7.87zm35.41 2.58l-4.02-10.12h-3.2l6.39 15.44h1.58l6.5-15.44H86.5l-4.07 10.12zm8.58 4.94h8.33v-2.55h-5.39v-4.07h5.18v-2.55h-5.18V31.8h5.39v-2.55h-8.33v15.06zm19.95-10.61c0-2.82-1.94-4.44-5.33-4.44h-4.36v15.05h2.94v-6.05h.38l4.06 6.05h3.61l-4.74-6.34c2.21-.45 3.43-1.97 3.43-4.27zm-5.89 2.49h-.85v-4.56h.9c1.83 0 2.82.77 2.82 2.23s-.99 2.33-2.87 2.33z" fill="#001722"/><path d="M113.03 30.38c0-.26-.18-.41-.5-.41h-.43v1.33h.31v-.52l.37.52h.39l-.44-.55c.19-.05.29-.19.29-.37zm-.55.18h-.06v-.34h.06c.16 0 .24.06.24.17s-.08.18-.24.18z" fill="#231f20"/><path d="M112.59 29.47a1.16 1.16 0 000 2.32c.64 0 1.14-.52 1.14-1.16s-.51-1.16-1.14-1.16zm0 2.11c-.51 0-.93-.42-.93-.95s.41-.95.93-.95.91.43.91.95-.41.95-.91.95zM44.21 48.26l3.93 4.11v-3.9h.56v5.26l-3.93-4.1v3.88h-.56v-5.25z" fill="#231f20"/><path d="M44.16 48.26v5.3h.67v-3.8c.17.18 3.93 4.11 3.93 4.11v-5.45h-.67v3.82c-.17-.18-3.93-4.12-3.93-4.12v.13zm.11.13c.17.18 3.93 4.12 3.93 4.12v-3.98h.45v5.08c-.17-.18-3.92-4.11-3.92-4.11v3.96h-.46v-5.07zm7.15.09h2.61V49h-2.05v1.5h1.99v.52h-1.99V53h2.05v.52h-2.61v-5.04z" fill="#231f20"/><path d="M54.03 48.42h-2.66v5.14h2.72v-.63h-2.05v-1.87h1.99v-.62h-1.99v-1.39h2.05v-.63h-.05zm-.05.1v.42h-2.05v1.6h1.99v.42h-1.99v2.08h2.05v.42h-2.51v-4.93h2.51zm4.01 4.99h-.56v-4.52h-1.21v-.52h3v.52h-1.23v4.52z" fill="#231f20"/><path d="M59.22 48.42h-3.06v.63h1.22v4.51h.67v-4.51h1.23v-.63h-.05zm-.05.1v.42h-1.23v4.52h-.46v-4.52h-1.21v-.42h2.9zm3.8 3.73l1.63-4.04 1.63 4.04 1.32-3.77h.61l-1.93 5.29-1.63-4.06-1.63 4.06-1.93-5.29h.61l1.32 3.77z" fill="#231f20"/><path d="M64.56 48.2l-1.58 3.91c-.09-.24-1.29-3.68-1.29-3.68h-.72l2 5.5s1.54-3.83 1.63-4.06c.09.23 1.63 4.06 1.63 4.06l2-5.5h-.72s-1.2 3.43-1.29 3.68c-.1-.24-1.63-4.03-1.63-4.03l-.05.12zm-1.53 4.07s1.49-3.69 1.58-3.91c.09.22 1.63 4.04 1.63 4.04s1.33-3.8 1.36-3.87h.5c-.05.13-1.77 4.86-1.86 5.1-.1-.24-1.63-4.05-1.63-4.05s-1.53 3.81-1.63 4.05c-.09-.24-1.81-4.96-1.86-5.1h.49c.02.07 1.36 3.87 1.36 3.87l.05-.13zM75.42 51c0 1.45-1.19 2.6-2.62 2.6s-2.62-1.15-2.62-2.6 1.19-2.61 2.62-2.61 2.62 1.17 2.62 2.61zm-4.69 0c0 1.13.92 2.08 2.07 2.08s2.06-.95 2.06-2.08-.91-2.09-2.06-2.09-2.07.94-2.07 2.09z" fill="#231f20"/><path d="M70.12 51c0 1.46 1.2 2.65 2.68 2.65s2.68-1.19 2.68-2.65-1.2-2.66-2.68-2.66-2.68 1.19-2.68 2.66zm.1 0c0-1.41 1.15-2.56 2.57-2.56s2.57 1.15 2.57 2.56-1.16 2.55-2.57 2.55-2.57-1.14-2.57-2.55z" fill="#231f20"/><path d="M70.67 50.99c0 1.18.95 2.14 2.12 2.14s2.11-.95 2.11-2.14-.95-2.14-2.11-2.14-2.12.96-2.12 2.14zm.11 0c0-1.12.9-2.03 2.01-2.03s2.01.91 2.01 2.03-.9 2.03-2.01 2.03-2.01-.91-2.01-2.03zm7.63 2.52h-.56v-5.04h.73c.95 0 1.84.25 1.84 1.39 0 .77-.48 1.32-1.26 1.39l1.6 2.26h-.69l-1.52-2.21h-.14v2.21zm0-2.71h.17c.63 0 1.28-.12 1.28-.9 0-.83-.61-.91-1.28-.91h-.17v1.81z" fill="#231f20"/><path d="M77.85 48.42h-.05v5.14h.67v-2.21h.09l1.48 2.19.73.02h.1s-1.54-2.16-1.62-2.28c.74-.1 1.23-.65 1.23-1.42 0-.97-.62-1.44-1.89-1.44h-.73zm.73.1c1.22 0 1.79.43 1.79 1.34 0 .75-.48 1.28-1.21 1.34h-.09s1.49 2.1 1.6 2.26h-.59l-1.48-2.19-.18-.02h-.05v2.21h-.46v-4.93h.68z" fill="#231f20"/><path d="M78.41 48.94h-.05v1.91h.23c.62 0 1.33-.11 1.33-.95 0-.89-.69-.96-1.33-.96h-.17zm.17.11c.65 0 1.23.06 1.23.85 0 .75-.62.85-1.22.85h-.12v-1.7h.11zm7.26-.57h.75l-2.36 2.35 2.44 2.69h-.77l-2.06-2.31-.14.14v2.17h-.56v-5.04h.56v2.16l2.15-2.16z" fill="#231f20"/><path d="M86.6 48.42h-.77l-2.07 2.08v-2.08h-.67v5.14h.67v-2.22s.05-.04.08-.07c.07.08 2.03 2.27 2.03 2.27l.81.02h.12s-2.43-2.67-2.5-2.74l2.42-2.4h-.12zm-.13.1c-.17.17-2.31 2.29-2.31 2.29s2.25 2.47 2.4 2.64h-.66l-2.03-2.29-.04-.04-.18.18-.01 2.16h-.46v-4.93h.46v2.23l2.22-2.23h.61z" fill="#231f20"/></svg>