<svg xmlns="http://www.w3.org/2000/svg" viewBox="0 0 133.17 81.45"><rect x="1.5" y="1.5" width="130.17" height="78.45" rx="12" ry="12" fill="#f7f8f8" stroke="#d8d8d8" stroke-miterlimit="10" stroke-width="3"/><path fill="#f26122" d="M57.9 23.18h20.97V59.9H57.9z"/><path d="M59.23 41.54c0-7.17 3.37-13.94 9.15-18.36-10.4-7.97-25.47-6.21-33.65 3.93s-6.37 24.82 4.03 32.79c8.69 6.65 20.92 6.65 29.61 0-5.78-4.42-9.16-11.19-9.15-18.35z" fill="#ea1d25"/><path d="M107.15 41.54c0 12.9-10.73 23.35-23.96 23.35-5.37 0-10.59-1.76-14.81-4.99 10.4-7.97 12.21-22.65 4.03-32.79a23.8 23.8 0 00-4.03-3.93c10.4-7.97 25.47-6.21 33.65 3.92 3.32 4.11 5.12 9.2 5.12 14.43zM104.86 56v-.75h.31v-.16h-.79v.16h.34V56h.14zm1.54 0v-.91h-.24l-.28.65-.28-.65h-.21V56h.17v-.68l.26.59h.18l.26-.59v.69h.14z" fill="#f69e1e"/><path d="M43.72 45.72v-3.89c.09-1.27-.89-2.37-2.2-2.46h-.3a2.5 2.5 0 00-2.24 1.1 2.331 2.331 0 00-2.1-1.1c-.74-.04-1.45.31-1.86.92v-.77h-1.38v6.2h1.4v-3.41c-.11-.79.46-1.53 1.28-1.64.09-.01.19-.02.28-.01.92 0 1.38.58 1.38 1.63v3.45h1.4V42.3c-.11-.8.47-1.53 1.29-1.64.09-.01.18-.01.27-.01.95 0 1.4.58 1.4 1.63v3.45l1.4-.03zm20.68-6.2h-2.28v-1.88h-1.4v1.88h-1.26v1.23h1.29v2.85c0 1.44.57 2.3 2.21 2.3.61 0 1.21-.16 1.73-.48l-.4-1.15a2.5 2.5 0 01-1.22.35c-.67 0-.92-.42-.92-1.04v-2.83h2.26v-1.23zm11.79-.16c-.69-.02-1.33.33-1.68.91v-.75h-1.37v6.2h1.38v-3.48c0-1.02.45-1.6 1.33-1.6.3 0 .59.05.87.16l.43-1.3a3.03 3.03 0 00-.99-.17l.03.03zm-17.85.65c-.78-.45-1.68-.68-2.6-.65-1.61 0-2.66.75-2.66 1.98 0 1.01.77 1.63 2.2 1.83l.67.09c.76.1 1.12.3 1.12.65 0 .48-.51.75-1.45.75-.76.02-1.51-.21-2.12-.65l-.67 1.05c.81.55 1.77.83 2.76.8 1.84 0 2.9-.84 2.9-2.02s-.84-1.66-2.22-1.85l-.67-.09c-.6-.08-1.08-.19-1.08-.61s.45-.73 1.21-.73c.7 0 1.39.19 2 .53l.61-1.09zm37.08-.65c-.69-.02-1.33.33-1.68.91v-.75h-1.37v6.2h1.38v-3.48c0-1.02.45-1.6 1.33-1.6.3 0 .59.05.87.16l.43-1.3a3.03 3.03 0 00-.99-.17l.03.03zM77.58 42.6c-.07 1.73 1.32 3.18 3.09 3.25h.3c.83.04 1.65-.22 2.29-.74l-.67-1.09c-.48.36-1.06.55-1.66.56-1.12-.09-1.96-1.05-1.87-2.15.08-.97.87-1.75 1.87-1.82.6 0 1.19.2 1.66.56l.67-1.09c-.64-.52-1.46-.78-2.29-.74-1.77-.1-3.29 1.22-3.39 2.95v.32zm12.97 0v-3.09h-1.38v.75c-.48-.6-1.22-.94-2-.91-1.84 0-3.33 1.45-3.33 3.24s1.49 3.24 3.33 3.24c.78.03 1.52-.31 2-.91v.75h1.38v-3.09zm-5.15 0c.06-1.03.97-1.82 2.03-1.76s1.87.95 1.81 1.98c-.06.99-.9 1.76-1.91 1.76-1.05.01-1.92-.81-1.93-1.84v-.15zm-16.71-3.24c-1.84.03-3.31 1.5-3.28 3.29s1.54 3.22 3.37 3.2c.96.05 1.9-.25 2.64-.84l-.67-1c-.53.41-1.18.64-1.85.65-.95.08-1.8-.59-1.9-1.52h4.73v-.52c0-1.95-1.24-3.24-3.02-3.24h-.02zm0 1.19c.87-.02 1.59.66 1.61 1.5s-3.33 0-3.33 0c.05-.87.8-1.53 1.69-1.5h.03zm34.68 2.05v-5.59h-1.33v3.24c-.48-.6-1.22-.94-2-.91-1.84 0-3.33 1.45-3.33 3.24s1.49 3.24 3.33 3.24c.78.03 1.52-.31 2-.91v.75h1.33v-3.07zm2.31 2.2c.09 0 .17.01.25.05a.622.622 0 01.35.32.575.575 0 01-.14.67c-.06.06-.13.1-.21.13a.664.664 0 01-.85-.33.575.575 0 01.14-.67c.06-.06.13-.1.21-.13.09-.03.18-.05.27-.05h-.02zm0 1.1c.07 0 .13-.01.19-.04.06-.02.11-.06.15-.1.17-.18.17-.47 0-.65a.492.492 0 00-.34-.14c-.07 0-.13.01-.19.04-.06.02-.11.06-.16.1-.17.18-.17.47 0 .65.05.04.1.08.16.1.07.03.14.04.21.04h-.02zm.04-.77c.06 0 .12.02.17.05.04.03.06.08.06.14 0 .04-.01.09-.05.12a.35.35 0 01-.14.06l.19.21h-.15l-.18-.21h-.06v.21h-.13v-.57h.28zm-.15.1v.16h.23v-.12h-.08l-.15-.04zm-7.32-2.63c.06-1.03.97-1.82 2.03-1.76s1.87.95 1.81 1.98c-.06.99-.9 1.76-1.91 1.76-1.05.01-1.92-.81-1.93-1.84v-.15zm-46.74 0v-3.1h-1.38v.75c-.48-.6-1.22-.94-2-.91-1.84 0-3.33 1.45-3.33 3.24s1.49 3.24 3.33 3.24c.78.03 1.52-.31 2-.91v.75h1.38v-3.07zm-5.15 0c.06-1.03.97-1.82 2.03-1.76s1.87.95 1.81 1.98c-.06.99-.9 1.76-1.91 1.76-1.05.02-1.93-.8-1.95-1.82v-.16h.01z" fill="#fff"/></svg>