<svg viewBox="0 0 158 158" xmlns="http://www.w3.org/2000/svg" fill-rule="evenodd" clip-rule="evenodd" stroke-linejoin="round" stroke-miterlimit="2"><path d="M0 78.9v-.11C0 35.562 35.572-.01 78.8-.01c43.228 0 78.8 35.572 78.8 78.8 0 43.228-35.572 78.8-78.8 78.8h-.01C35.603 157.585.055 122.077 0 78.89v.01zm81.05 34.8c-11.64 0-18-8.08-17.45-21h12.1c0 6.36.2 10.9 5.55 10.9 2.72 0 4.1-2.8 4.1-7.26 0-12.18-20.54-13.55-20.54-33.63 0-10.55 4.82-18 16.82-18 9.9 0 15.35 4.54 15.62 20.53h-10.9c0-6.62-1.18-10.8-4.8-10.8-3.28 0-5.55 2.64-4.83 7.27 1.9 12.1 21.1 14.82 21.46 33.45.36 16.1-11.82 18.54-17.1 18.54h-.03zm46.55-.56h.06c2.809 0 5.12-2.311 5.12-5.12v-.12c0-2.847-2.333-5.194-5.18-5.21-2.891.005-5.269 2.379-5.28 5.27.011 2.845 2.355 5.181 5.2 5.181l.08-.001zm-103.15-.26V45.16h11l12.36 32.8v-32.8h11.54v67.36h-9.9l-12.3-35.36v35.72h-12.7zm78.69-.35V45.18h28v10.36H116.5V72.8h10.45v11.65H116.5v28.08h-13.36zm20.19-4.53c.005-2.339 1.931-4.26 4.27-4.26 2.342 0 4.27 1.928 4.27 4.27 0 2.342-1.928 4.27-4.27 4.27h-.04c-2.321 0-4.23-1.909-4.23-4.23V108zm3.18.37h1.1l1.55 2.64h1l-1.73-2.64c.92-.18 1.64-.64 1.64-1.72s-.72-1.64-2.18-1.64h-2.27v6h.9l-.01-2.64zm0-.73v-1.9h1.27c.63 0 1.27.2 1.27.92 0 .9-.72 1-1.45 1l-1.09-.02z"/></svg>